<?xml version="1.0" encoding="UTF-8"?><svg id="Layer_1" xmlns="http://www.w3.org/2000/svg" viewBox="0 0 32 29.97"><path d="M31.72,16.77c-.24-.01-.5,0-.74,.04,.17-.18,.33-.39,.49-.64,.55-.88,.66-1.91,.39-2.79-.24,.04-.48,.11-.71,.2,.13-.21,.23-.45,.34-.72,.35-.98,.24-2.01-.21-2.81-.23,.08-.45,.2-.66,.35,.07-.23,.14-.49,.18-.79,.14-1.03-.18-2.01-.8-2.71-.2,.14-.39,.3-.57,.48,.03-.24,.03-.51,.01-.81-.08-1.04-.61-1.93-1.35-2.47-.17,.18-.33,.37-.46,.58-.02-.24-.07-.5-.16-.79-.3-1-1-1.75-1.84-2.14-.13,.21-.23,.44-.32,.67-.07-.23-.18-.48-.32-.73C24.5,.79,23.66,.19,22.75,0c-.17,.47-.23,.99-.18,1.5-.11-.08-.23-.16-.36-.24-.89-.54-1.92-.64-2.8-.35,.16,.91,.72,1.77,1.61,2.32,.13,.07,.25,.15,.38,.2-.49,.19-.91,.49-1.24,.86,.5,.59,1.22,1.02,2.06,1.15,.36,.68,.98,1.23,1.76,1.53,.21,.73,.7,1.41,1.39,1.87,.05,.76,.38,1.53,.97,2.12-.11,.75,.05,1.57,.5,2.28-.27,.72-.28,1.55,.01,2.34-.41,.65-.59,1.46-.48,2.28-.54,.54-.89,1.3-.96,2.14-.64,.41-1.15,1.08-1.38,1.88-.71,.28-1.35,.82-1.74,1.55-.75,.12-1.49,.51-2.03,1.15-.91-.05-1.88,.29-2.6,1.02-.47,.47-.74,.93-.88,1.36-.23,.78-1.33,.78-1.55,0-.14-.44-.41-.89-.88-1.36-.72-.73-1.69-1.07-2.6-1.02-.54-.64-1.27-1.03-2.03-1.15-.4-.73-1.03-1.27-1.74-1.55-.23-.8-.73-1.47-1.38-1.88-.06-.83-.41-1.58-.96-2.14,.12-.83-.07-1.64-.48-2.28,.29-.79,.28-1.61,.01-2.34,.45-.7,.62-1.52,.5-2.28,.58-.59,.91-1.36,.97-2.12,.7-.46,1.18-1.14,1.39-1.87,.78-.3,1.39-.86,1.76-1.53,.84-.14,1.56-.55,2.06-1.15-.33-.37-.76-.67-1.24-.86,.13-.06,.25-.13,.38-.2,.89-.54,1.46-1.4,1.61-2.32-.88-.29-1.91-.19-2.8,.35-.13,.07-.24,.16-.36,.24,.05-.52,0-1.03-.18-1.5-.9,.19-1.74,.8-2.25,1.7-.14,.25-.24,.5-.32,.73-.08-.23-.19-.47-.32-.67-.84,.38-1.54,1.15-1.84,2.14-.08,.29-.14,.54-.16,.79-.13-.21-.29-.41-.46-.58-.74,.55-1.26,1.44-1.35,2.47-.02,.3-.02,.56,.01,.81-.17-.18-.36-.34-.57-.48-.62,.69-.93,1.68-.8,2.71,.04,.3,.1,.55,.18,.79-.2-.14-.42-.25-.66-.35-.46,.81-.56,1.84-.21,2.81,.1,.28,.21,.52,.34,.72-.23-.1-.47-.16-.71-.2-.28,.88-.16,1.91,.39,2.79,.16,.25,.32,.46,.49,.64-.24-.04-.5-.06-.74-.04-.07,.92,.24,1.9,.97,2.64,.2,.21,.4,.38,.61,.52-.25,.01-.5,.04-.73,.11,.12,.91,.64,1.81,1.51,2.39,.24,.16,.48,.29,.7,.38-.24,.06-.48,.15-.69,.27,.31,.87,1.01,1.64,1.98,2.02,.28,.11,.53,.18,.76,.22-.22,.11-.44,.24-.63,.4,.49,.79,1.33,1.38,2.36,1.55,.29,.05,.55,.06,.8,.06-.19,.16-.37,.33-.52,.52,.64,.67,1.59,1.07,2.62,1.02,.3-.01,.55-.05,.8-.11-.16,.19-.3,.4-.4,.63,.76,.52,1.78,.71,2.78,.45,.49-.13,.87-.31,1.17-.52,.98-.67,2.27-.68,3.27,0,.31,.21,.69,.38,1.17,.52,1.01,.27,2.02,.07,2.78-.45-.11-.22-.24-.44-.4-.63,.23,.05,.5,.1,.8,.11,1.04,.05,1.99-.35,2.62-1.02-.15-.19-.33-.37-.52-.52,.24,.01,.51-.01,.8-.06,1.03-.17,1.87-.76,2.36-1.55-.19-.16-.4-.29-.63-.4,.24-.04,.5-.12,.76-.22,.97-.38,1.67-1.14,1.98-2.02-.22-.12-.46-.2-.69-.27,.22-.1,.46-.22,.7-.38,.86-.57,1.39-1.47,1.51-2.39-.23-.06-.49-.11-.73-.11,.2-.14,.4-.31,.61-.52,.74-.74,1.06-1.72,.99-2.64Zm-21.58,7.36c.55,.2,1.05,.59,1.4,1.15,.42,.66,.56,1.24,.46,1.76-.51-.12-.99-.49-1.4-1.15-.35-.55-.5-1.18-.46-1.76Zm-1.9-1.48c.5,.32,.9,.81,1.14,1.42,.28,.73,.29,1.33,.07,1.82-.48-.22-.86-.69-1.14-1.42-.22-.62-.24-1.24-.07-1.82Zm-1.55-1.84c.41,.41,.71,.98,.81,1.63,.12,.78,0,1.36-.31,1.8-.41-.32-.69-.85-.81-1.63-.1-.66,.02-1.27,.31-1.8Zm-1.14-2.12c.32,.49,.49,1.1,.45,1.76-.05,.79-.29,1.33-.68,1.69-.34-.4-.5-.98-.45-1.76,.05-.66,.31-1.24,.68-1.69Zm-2.11-3.46c.31-.57,.78-1.01,1.31-1.25,.08,.58-.01,1.21-.32,1.78-.37,.69-.81,1.09-1.31,1.26-.14-.52-.05-1.1,.32-1.8Zm-.56-1.01c-.03-.53,.18-1.08,.69-1.68,.42-.5,.98-.82,1.54-.96-.03,.58-.27,1.18-.69,1.68-.5,.61-1.02,.9-1.54,.96Zm1.01,3.65c.18-.63,.55-1.15,1.02-1.51,.21,.55,.24,1.19,.06,1.82-.21,.75-.56,1.24-1.02,1.51-.24-.47-.28-1.06-.06-1.82Zm1.05-7.04c-.63,.48-1.19,.67-1.71,.61,.07-.52,.4-1.02,1.03-1.5,.52-.4,1.13-.59,1.71-.61-.17,.56-.51,1.09-1.03,1.5Zm6.05-6.53c-.47,.36-1.06,.58-1.72,.59-.79,.01-1.35-.17-1.74-.53,.37-.37,.93-.58,1.72-.59,.67-.01,1.27,.19,1.74,.53Zm-.89-2.54c.56-.34,1.19-.47,1.77-.41-.22,.54-.63,1.03-1.19,1.37-.67,.4-1.25,.53-1.77,.41,.14-.51,.52-.97,1.19-1.37Zm-2.58,.22c.32-.57,.8-1,1.33-1.24,.08,.58-.02,1.21-.34,1.78-.38,.69-.82,1.08-1.33,1.24-.14-.51-.03-1.09,.34-1.78Zm-.36,3.47c.64-.15,1.27-.08,1.81,.15-.37,.45-.91,.8-1.55,.95-.76,.18-1.36,.12-1.82-.15,.3-.45,.81-.76,1.56-.95Zm-2.07-1.38c.19-.63,.56-1.15,1.03-1.49,.2,.55,.23,1.19,.04,1.82-.22,.75-.57,1.23-1.04,1.5-.23-.49-.25-1.08-.03-1.83Zm.38,3.46c.59-.28,1.22-.35,1.81-.23-.28,.52-.72,.97-1.32,1.25-.71,.34-1.31,.4-1.81,.23,.18-.5,.61-.91,1.32-1.25Zm-2.32-.91c.05-.65,.31-1.23,.7-1.68,.31,.5,.48,1.12,.42,1.76-.06,.79-.3,1.33-.7,1.68-.34-.4-.49-.98-.42-1.76Zm-1.03,1.13c.41,.41,.7,.99,.79,1.64,.11,.78-.01,1.36-.33,1.78-.41-.33-.68-.86-.79-1.64-.1-.65,.04-1.27,.33-1.78Zm-1.1,3.09c.49,.32,.89,.82,1.12,1.43,.27,.74,.28,1.34,.05,1.82-.48-.23-.85-.7-1.12-1.43-.22-.62-.22-1.25-.05-1.82Zm-.42,3.26c.54,.21,1.04,.62,1.39,1.17,.41,.67,.54,1.24,.44,1.76-.51-.13-.98-.5-1.39-1.17-.34-.55-.48-1.18-.44-1.76Zm1.07,4.91c-.46-.47-.72-1.05-.8-1.64,.58,.1,1.15,.38,1.6,.85,.54,.56,.8,1.1,.8,1.64-.52-.01-1.05-.29-1.6-.85Zm1.29,2.94c-.54-.36-.92-.87-1.13-1.42,.58-.03,1.2,.13,1.75,.49,.65,.44,1.01,.91,1.13,1.42-.52,.1-1.09-.05-1.75-.49Zm1.88,2.6c-.61-.24-1.09-.66-1.4-1.16,.56-.15,1.2-.13,1.82,.12,.73,.29,1.18,.68,1.4,1.16-.49,.2-1.09,.17-1.82-.12Zm2.38,2.15c-.65-.11-1.2-.41-1.61-.84,.52-.27,1.15-.38,1.8-.28,.78,.13,1.3,.41,1.61,.84-.44,.31-1.02,.41-1.8,.28Zm2.78,1.6c-.66,.03-1.26-.15-1.75-.48,.46-.37,1.04-.62,1.7-.65,.79-.04,1.36,.13,1.75,.48-.37,.39-.92,.62-1.7,.65Zm3.05,.98c-.64,.17-1.26,.12-1.82-.1,.36-.46,.89-.82,1.52-.99,.75-.2,1.35-.16,1.82,.1-.27,.46-.75,.79-1.52,.99Zm.1-2.49c-.47-.47-.73-1.04-.82-1.63,.58,.08,1.16,.36,1.61,.83,.55,.55,.81,1.09,.82,1.63-.53-.01-1.06-.28-1.61-.83ZM31.4,14.11c.05,.58-.08,1.21-.44,1.76-.41,.67-.88,1.04-1.39,1.17-.11-.52,.02-1.09,.44-1.76,.35-.55,.85-.96,1.39-1.17Zm-.42-3.26c.17,.56,.17,1.2-.05,1.82-.27,.74-.64,1.2-1.12,1.43-.21-.48-.21-1.07,.05-1.82,.22-.62,.63-1.1,1.12-1.43Zm-1.88-1.46c.08-.65,.37-1.22,.79-1.64,.29,.51,.41,1.14,.33,1.78-.11,.78-.37,1.31-.79,1.64-.32-.42-.44-1.01-.33-1.78Zm-1.53,6.36c-.31-.57-.4-1.21-.32-1.78,.53,.24,1,.68,1.31,1.25,.37,.69,.47,1.29,.32,1.78-.5-.15-.93-.55-1.31-1.25Zm.48,3.94c-.46-.27-.8-.75-1.02-1.51-.18-.63-.14-1.26,.06-1.82,.47,.35,.84,.87,1.02,1.51,.22,.75,.18,1.35-.06,1.82Zm-.47-6.43c-.42-.5-.65-1.09-.69-1.68,.57,.13,1.13,.46,1.54,.96,.51,.59,.72,1.16,.69,1.68-.52-.05-1.03-.35-1.54-.96Zm.57-8.32c.38,.44,.65,1.02,.7,1.68,.06,.79-.08,1.36-.42,1.76-.39-.35-.64-.89-.7-1.68-.04-.65,.12-1.26,.42-1.76Zm-2.27-2.37c.47,.35,.85,.86,1.03,1.49,.22,.75,.2,1.35-.04,1.82-.46-.25-.81-.74-1.04-1.5-.18-.62-.15-1.25,.05-1.81Zm-2.73-1.84c.53,.24,1.01,.67,1.33,1.24,.38,.69,.48,1.27,.34,1.78-.51-.16-.95-.55-1.33-1.24-.31-.57-.41-1.2-.34-1.78Zm-1.83,1.98c-.56-.34-.97-.83-1.19-1.37,.58-.05,1.21,.07,1.77,.41,.67,.4,1.05,.86,1.19,1.37-.52,.12-1.1,0-1.77-.41Zm1.4,2.18c-.66-.01-1.25-.23-1.72-.59,.48-.34,1.08-.54,1.74-.53,.79,.01,1.35,.22,1.72,.59-.39,.36-.96,.55-1.74,.53Zm.31,.71c.54-.23,1.17-.3,1.81-.15,.76,.18,1.26,.5,1.55,.95-.46,.27-1.05,.33-1.82,.15-.63-.15-1.17-.5-1.54-.95Zm1.7,1.7c.57-.12,1.21-.05,1.81,.23,.71,.34,1.14,.75,1.32,1.25-.5,.17-1.09,.11-1.81-.23-.59-.29-1.04-.73-1.32-1.25Zm1.31,2.03c.58,.01,1.19,.21,1.71,.61,.63,.48,.95,.98,1.03,1.5-.52,.06-1.09-.13-1.71-.61-.52-.4-.87-.93-1.03-1.5Zm.4,9.36c.38,.45,.63,1.03,.68,1.69,.05,.79-.11,1.36-.45,1.76-.39-.35-.63-.9-.68-1.69-.04-.66,.13-1.27,.45-1.76Zm-1.93,3.75c.1-.65,.39-1.21,.81-1.63,.28,.52,.4,1.14,.31,1.8-.12,.78-.39,1.31-.81,1.63-.31-.44-.42-1.02-.31-1.8Zm-1.88,1.64c.23-.62,.64-1.1,1.14-1.42,.16,.56,.15,1.2-.07,1.82-.28,.73-.66,1.19-1.14,1.42-.21-.49-.2-1.08,.07-1.82Zm-2.18,1.2c.35-.55,.86-.95,1.4-1.15,.04,.58-.11,1.2-.46,1.75-.42,.66-.89,1.03-1.4,1.15-.11-.51,.03-1.08,.46-1.75Zm-2.38,.72c.47-.47,1.04-.74,1.61-.83-.08,.58-.36,1.16-.82,1.63-.55,.55-1.09,.82-1.61,.83,0-.53,.27-1.07,.82-1.63Zm.88,3.28c-.75-.2-1.25-.53-1.53-.99,.46-.25,1.05-.3,1.82-.1,.64,.17,1.16,.53,1.52,.99-.53,.22-1.17,.27-1.81,.1Zm3.06-.98c-.79-.04-1.34-.25-1.7-.65,.39-.35,.97-.52,1.75-.48,.66,.03,1.24,.27,1.7,.65-.49,.33-1.09,.51-1.75,.48Zm2.78-1.6c-.78,.13-1.36,.03-1.8-.28,.32-.42,.84-.71,1.61-.84,.65-.11,1.27,0,1.8,.28-.41,.44-.97,.73-1.61,.84Zm2.38-2.15c-.73,.29-1.33,.32-1.82,.12,.22-.48,.67-.87,1.4-1.16,.61-.24,1.24-.27,1.82-.12-.31,.5-.8,.91-1.4,1.16Zm3-4.03c-.19,.55-.57,1.06-1.13,1.42-.65,.44-1.23,.58-1.75,.49,.12-.52,.47-.99,1.13-1.42,.55-.36,1.17-.52,1.75-.49Zm-1.44-.67c0-.53,.25-1.07,.8-1.64,.46-.47,1.03-.75,1.6-.85-.07,.58-.34,1.16-.8,1.64-.54,.56-1.07,.84-1.6,.85Z" style="fill:#008755;"/><path d="M7.12,16.2v.4c.12,.25,.72,1.4,1.72,2.85h-1.42s.29,.58,1.16,.58h14.85c.88,0,1.16-.58,1.16-.58h-1.3c.79-1.18,1.18-1.88,1.8-3.05h.71v-1.12h-3.88c-4.07-3.3-4.94-8.95-2.57-13.18-6.78,1.34-11.86,7.22-12.23,14.1Zm.3,.01c2-1.24,4.3-1.95,6.66-2.09v2.09H7.42Zm14.16-.46l-.34,.46h-6.25v-2.11c2.24,.01,4.49,.55,6.59,1.66Zm-1.29-1.23c-4-1.56-8.61-1.34-12.51,.8,.71-5.92,4.96-10.77,10.51-12.36-1.56,3.8-.9,8.33,2.01,11.57Z" style="fill:#008755;"/><path d="M15.34,24.96h1.32c.88,0,1.16-.58,1.16-.58h-3.64s.29,.58,1.17,.58Z" style="fill:#008755;"/><path d="M20.47,23.15H11.53s.29,.58,1.16,.58h6.62c.88,0,1.17-.58,1.17-.58Z" style="fill:#008755;"/><path d="M22.49,21.91H9.51s.29,.58,1.16,.58h10.66c.87,0,1.16-.58,1.16-.58Z" style="fill:#008755;"/><path d="M23.72,20.68H8.28s.29,.58,1.16,.58h13.12c.88,0,1.17-.58,1.17-.58Z" style="fill:#008755;"/></svg>